<?xml version="1.0" encoding="UTF-8"?>
<svg id="Layer_1" xmlns="http://www.w3.org/2000/svg" version="1.1" viewBox="0 0 1200 700">
  <!-- Generator: Adobe Illustrator 29.8.7, SVG Export Plug-In . SVG Version: 2.1.1 Build 1)  -->
  <defs>
    <style>
      .st0 {
        fill: #e9282d;
        fill-rule: evenodd;
      }

      .st1 {
        fill: #141719;
      }
    </style>
  </defs>
  <g>
    <path class="st0" d="M528.05,346.55s20.23-6.9,20.23-29.88c0-26.89-19.08-40.23-45.29-40.23h-68.73v146.2h74.71c22.98,0,45.51-16.09,45.51-40.69,0-29.19-26.44-35.17-26.44-35.4h0ZM470.12,306.78h26.67c8.27,0,13.79,5.52,13.79,13.79,0,6.44-5.06,13.33-14.48,13.33h-25.97v-27.13h0ZM497.02,392.07h-26.89v-28.74h26.2c13.1,0,19.31,5.75,19.31,14.26,0,10.57-7.82,14.48-18.62,14.48h0Z"/>
    <path class="st0" d="M633.56,272.76c-42.29,0-67.12,33.79-67.12,76.55s24.83,76.55,67.12,76.55,67.12-33.56,67.12-76.55-24.59-76.55-67.12-76.55h0ZM633.56,390.91c-20.69,0-31.03-18.62-31.03-41.6s10.35-41.38,31.03-41.38,31.27,18.62,31.27,41.38-10.57,41.6-31.27,41.6Z"/>
    <path class="st0" d="M778.61,333.91l-5.06-1.15c-12.41-2.53-22.3-5.75-22.3-14.71,0-9.66,9.43-13.56,17.7-13.56,12.18,0,22.98,5.97,29.88,13.56l22.76-22.53c-10.35-11.72-27.13-22.98-53.33-22.98-30.8,0-54.25,17.24-54.25,45.98,0,26.2,18.85,39.08,41.84,43.9l5.06,1.15c19.08,3.91,26.2,6.9,26.2,16.09s-7.82,14.48-19.77,14.48c-14.26,0-27.13-6.21-37.01-18.85l-23.22,22.98c12.87,15.4,29.19,27.36,60.69,27.36,27.36,0,56.55-15.63,56.55-47.59.46-33.33-24.83-39.77-45.75-44.14h0Z"/>
    <path class="st0" d="M906.19,390.91c-16.09,0-32.88-13.33-32.88-42.53,0-25.97,15.63-40.46,31.95-40.46,12.87,0,20.46,5.97,26.44,16.32l29.42-19.54c-14.71-22.3-32.18-31.72-56.32-31.72-44.14,0-68.04,34.25-68.04,75.62,0,43.45,26.44,77.47,67.59,77.47,28.97,0,42.76-10.11,57.7-31.72l-29.66-20c-5.97,9.66-12.41,16.55-26.2,16.55h0Z"/>
    <polygon class="st0" points="1059.29 276.44 1059.29 330.23 1014.92 330.23 1014.92 276.44 976.53 276.44 976.53 422.64 1014.92 422.64 1014.92 364.94 1059.29 364.94 1059.29 422.64 1097.68 422.64 1097.68 276.44 1059.29 276.44"/>
  </g>
  <g id="anker">
    <path class="st1" d="M213.12,239.2c-61.15,0-110.8,49.65-110.8,110.8s49.65,110.8,110.8,110.8,110.8-49.65,110.8-110.8-49.65-110.8-110.8-110.8h0ZM213.12,450.45c-55.4,0-100.45-45.06-100.45-100.45s45.06-100.45,100.45-100.45,100.45,45.06,100.45,100.45-45.06,100.45-100.45,100.45h0Z"/>
    <path class="st1" d="M258.86,280.8h-7.58v37.93h-76.09v-37.93h-7.82c-22.3,14.94-37.24,40.23-37.24,69.2s14.94,54.25,37.24,69.2h7.82v-37.93h76.09v37.93h7.58c22.53-14.94,37.24-40.23,37.24-69.2s-14.71-54.25-37.24-69.2ZM164.62,404.25c-15.4-13.56-24.37-33.1-24.37-54.25s8.96-40.69,24.37-54.25v108.5ZM251.28,370.68h-76.09v-41.6h76.09v41.6ZM261.63,404.02v-22.98h0v-62.3h0v-22.98c15.17,13.56,24.14,33.1,24.14,54.02s-8.96,40.69-24.14,54.25h0Z"/>
  </g>
</svg>