<?xml version="1.0" encoding="UTF-8"?>
<svg id="Layer_1" xmlns="http://www.w3.org/2000/svg" version="1.1" viewBox="0 0 1200 700">
  <!-- Generator: Adobe Illustrator 29.8.7, SVG Export Plug-In . SVG Version: 2.1.1 Build 1)  -->
  <defs>
    <style>
      .st0 {
        fill: #1cbaea;
      }
    </style>
  </defs>
  <polygon points="104.58 460.94 70.02 460.94 70.02 466.88 84.33 466.88 84.33 507.24 90.58 507.24 90.58 466.88 104.58 466.88 104.58 460.94"/>
  <polygon class="st0" points="330.82 237.88 330.82 191.4 116.01 191.4 68.82 191.4 68.82 237.88 68.82 263.47 68.82 309.02 68.82 337.42 68.82 377.57 116.01 377.57 330.82 377.57 330.82 337.42 116.01 337.42 116.01 309.02 330.82 309.02 330.82 263.47 116.01 263.47 116.01 237.88 330.82 237.88"/>
  <polygon class="st0" points="382.36 338.49 382.36 191.4 341.63 191.4 341.63 377.57 361.99 377.57 382.36 377.57 569.82 377.57 569.82 338.49 382.36 338.49"/>
  <path class="st0" d="M829.01,286.81c10.25-10.25,10.84-39.25,10.84-39.25,0-47.59-44.27-56.22-44.27-56.22h-217.72v186.23h222.15s32.76-6.5,38.29-43.24c5.53-36.74-9.29-47.51-9.29-47.51h0ZM621.84,237.67h163.27c5.66,0,10.25,4.59,10.25,10.25v6.12c0,5.66-4.59,10.25-10.25,10.25h-163.27v-26.63h0ZM797.13,322.67c0,8.11-6.57,14.68-14.68,14.68h-160.61v-28.04h164.78c5.81,0,10.51,4.7,10.51,10.51v2.84h0Z"/>
  <path class="st0" d="M1077.61,378.01h53.58l-128.69-185.03h-55.29l-125.42,183.4h51.94l24.56-35.42h153.54l25.79,37.05h0ZM931.62,292.86l43.27-62.4,43.44,62.4h-86.71Z"/>
  <polygon points="405.31 460.94 370.73 460.94 370.73 466.88 385.05 466.88 385.05 507.24 391.3 507.24 391.3 466.88 405.31 466.88 405.31 460.94"/>
  <polygon points="336.43 460.94 336.43 498.46 316.1 460.94 313.79 460.94 309.55 460.94 307.91 460.94 307.91 507.24 313.79 507.24 313.79 468.85 334.4 507.24 336.43 507.24 341.19 507.24 342.96 507.24 342.96 460.94 336.43 460.94"/>
  <polygon points="276.26 466.82 276.26 460.94 256.96 460.94 250.72 460.94 250.72 466.82 250.72 480.4 250.72 486.29 250.72 501.65 250.72 507.24 256.96 507.24 276.26 507.24 276.26 501.65 256.96 501.65 256.96 486.29 274.3 486.29 274.3 480.4 256.96 480.4 256.96 466.82 276.26 466.82"/>
  <polygon points="202.96 501.65 202.96 460.94 196.71 460.94 196.71 501.65 196.71 507.24 202.96 507.24 222.22 507.24 222.22 501.65 202.96 501.65"/>
  <path d="M161.89,507.24h6.25l-18.53-46.31h-6.73l-18.53,46.31h6.25l4.53-11.71h22.23l4.53,11.71h0ZM137.06,490.52l9.17-23.7,9.17,23.7s-18.35,0-18.35,0Z"/>
  <polygon points="504.9 466.83 504.9 460.94 486.97 460.94 480.63 460.94 480.63 466.83 480.63 480.33 480.63 486.23 480.63 507.24 486.97 507.24 486.97 486.23 503.78 486.23 503.78 480.33 486.97 480.33 486.97 466.83 504.9 466.83"/>
  <path d="M554.1,459.96h0c-12.02,0-21.77,9.74-21.77,21.77v4.95c0,12.02,9.74,21.77,21.77,21.77h0c12.02,0,21.77-9.74,21.77-21.77v-4.95c0-12.02-9.74-21.77-21.77-21.77ZM568.87,487.7c0,8.11-6.57,14.68-14.68,14.68h0c-8.11,0-14.68-6.58-14.68-14.68v-6.79c0-8.11,6.57-14.68,14.68-14.68h0c8.11,0,14.68,6.58,14.68,14.68v6.79Z"/>
  <path d="M795.45,459.96h0c-12.02,0-21.77,9.74-21.77,21.77v4.95c0,12.02,9.74,21.77,21.77,21.77h0c12.02,0,21.77-9.74,21.77-21.77v-4.95c0-12.02-9.74-21.77-21.77-21.77ZM810.21,487.7c0,8.11-6.57,14.68-14.68,14.68h0c-8.11,0-14.68-6.58-14.68-14.68v-6.79c0-8.11,6.57-14.68,14.68-14.68h0c8.11,0,14.68,6.58,14.68,14.68v6.79Z"/>
  <path d="M867.08,459.96h0c-12.02,0-21.77,9.74-21.77,21.77v4.95c0,12.02,9.74,21.77,21.77,21.77h0c12.02,0,21.77-9.74,21.77-21.77v-4.95c0-12.02-9.74-21.77-21.77-21.77ZM881.83,487.7c0,8.11-6.57,14.68-14.68,14.68h0c-8.11,0-14.68-6.58-14.68-14.68v-6.79c0-8.11,6.57-14.68,14.68-14.68h0c8.11,0,14.68,6.58,14.68,14.68v6.79Z"/>
  <rect x="983.35" y="461.22" width="6.93" height="46.19"/>
  <path d="M1109.95,487.78h9.44v13.87c-1.33.88-8.19.67-8.19.67-3.91,0-15.72-3.24-15.72-18s11.14-18.3,17.78-18.3,11.73,3.39,11.73,3.39l.74-6.57s-3.84-2.65-14.91-2.65-22.58,9.74-22.58,22.87,8.19,25.45,21.69,25.45,16.16-2.43,16.16-2.43v-23.75h-16.12l-.04,5.46h.02Z"/>
  <polygon points="1051.59 461.22 1051.59 499.24 1031.67 461.22 1029.24 461.22 1024.96 461.22 1022.52 461.22 1022.52 507.41 1029.24 507.41 1029.24 469.22 1049.68 507.41 1051.59 507.41 1055.87 507.41 1058.01 507.41 1058.01 461.22 1051.59 461.22"/>
  <path d="M746.45,500.26l.84,6.43c-3.04,1.25-6.41,1.95-9.97,1.95-13.29,0-24.07-9.74-24.07-21.76v-4.95c0-12.02,10.78-21.77,24.07-21.77,3.58,0,6.97.71,10.02,1.98l-1.16,6.25c-1.27-.67-2.67-1.18-4.14-1.53-1.46-.35-3.01-.54-4.61-.54-9.45,0-17.1,6.58-17.1,14.68v6.79c0,4.06,1.91,7.73,5,10.38,3.1,2.66,7.36,4.3,12.09,4.3,3.32,0,6.4-.83,9.03-2.23v.02Z"/>
  <polygon points="955.17 507.41 933.08 483.08 953.64 461.22 944.88 461.22 925.78 481.89 925.78 461.22 919.48 461.22 919.48 507.41 925.78 507.41 925.78 484.38 946.09 507.41 955.17 507.41"/>
  <path d="M638.22,507.41h-7.8l-7.14-16.71c-1.49-3.76-5.47-3.71-5.47-3.71h-5.4v20.42h-6.64v-46.04h17.1c6.36,0,11.51,5.15,11.51,11.51h0c0,5.6-4,10.26-9.3,11.29h.02c2.24-.22,4.93,4.92,4.93,4.92l8.19,18.31h0ZM620.28,466.79h-7.89v14.27h7.89c3.94,0,7.14-3.2,7.14-7.14h0c0-3.94-3.2-7.14-7.14-7.14Z"/>
</svg>