<?xml version="1.0" encoding="UTF-8"?>
<svg id="Layer_1" xmlns="http://www.w3.org/2000/svg" version="1.1" viewBox="0 0 1200 700">
  <!-- Generator: Adobe Illustrator 29.8.7, SVG Export Plug-In . SVG Version: 2.1.1 Build 1)  -->
  <defs>
    <style>
      .st0 {
        fill-rule: evenodd;
      }
    </style>
  </defs>
  <path class="st0" d="M390.9,214.88h52.98v266.21h-52.98V214.88ZM368.24,402.75h-195.42c9.01,25.48,34.93,40.69,71.04,40.69h7.06c32.58,0,51.42-9.89,58.86-22.43h56.51c-7.84,34.61-44.36,63.89-118.92,63.89-78.9,0-131.1-37.65-131.1-101.93-1.18-58.56,61.21-96.61,131.1-95.82,75.74,0,120.86,41.06,120.86,96.97v18.63h.02ZM312.93,363.97c-1.57-21.3-26.7-35.37-62-35.37h-7.06c-36.5,0-60.45,12.93-69.86,35.37h138.94-.02ZM523.38,290.95h-52.98v190.14h52.98v-190.14ZM674.65,287.14c70.64,0,115.37,29.28,121.67,70.34h-55.73c-6.66-18.26-29.42-27-62-27h-7.06c-47.89,0-73.39,25.48-73.39,55.52s25.5,55.52,73.39,55.52h7.06c32.19,0,57.69-11.02,61.63-27h55.73c-6.29,38.02-44.73,70.34-121.28,70.34-82.79,0-130.29-41.85-130.29-98.89s49.85-98.89,130.29-98.89h0l-.02.05ZM993.11,358.27l-90.66,5.33h0c-61.63,4.17-89.48,22.41-89.48,60.45s29.05,60.85,91.44,60.85c43.94,0,74.17-13.3,90.26-28.89,0,9.52,1.18,17.87,3.14,25.11h52.98c-3.14-10.65-4.7-24.72-4.7-41.85v-77.19c0-49.06-40.83-74.91-113.41-74.91-63.59,0-109.1,27-111.48,62.76h53.77c2.35-11.78,23.15-21.3,52.98-21.3h7.06c36.5,0,58.08,9.52,58.08,27.39v2.28l.02-.02ZM993.08,404.66c0,24.72-29.83,38.78-74.96,38.78h-7.06c-31.4,0-44.36-8.74-44.36-20.91,0-10.63,10.21-17.48,37.28-19.02l89.09-5.33v6.48ZM524.56,214.88h-55.33v53.63h55.33v-53.63ZM1062.41,254.73c-11.48,0-20.89,9.08-20.89,20.24s9.36,20.24,20.89,20.24,20.89-9.08,20.89-20.24-9.43-20.24-20.89-20.24ZM1078.76,274.97c0,8.83-7.33,16.09-16.32,16.09s-16.37-7.31-16.37-16.09,7.4-16.05,16.37-16.05,16.32,7.22,16.32,16.05ZM1064.39,264.96h-9.57v19.85h4.93v-7.12h4.01c1.66,0,2.21.58,2.21,2.03v5.07h4.93v-6.18c0-2.28-1.41-3.07-4.08-3.07,2.4-.53,4.33-2.03,4.33-5.14s-2.35-5.44-6.76-5.44h-.02ZM1066.24,271.35c0,1.57-1.04,2.33-2.95,2.33h-3.55v-4.52h3.44c2.08,0,3.07.62,3.07,2.19h0Z"/>
</svg>