<?xml version="1.0" encoding="UTF-8"?>
<svg id="Layer_1" xmlns="http://www.w3.org/2000/svg" version="1.1" xmlns:xlink="http://www.w3.org/1999/xlink" viewBox="0 0 1200 700">
  <!-- Generator: Adobe Illustrator 29.8.7, SVG Export Plug-In . SVG Version: 2.1.1 Build 1)  -->
  <defs>
    <style>
      .st0, .st1 {
        fill: #231f20;
      }

      .st2 {
        fill: none;
      }

      .st1 {
        fill-rule: evenodd;
      }

      .st3 {
        fill: #fff200;
      }

      .st4 {
        clip-path: url(#clippath);
      }
    </style>
    <clipPath id="clippath">
      <rect class="st2" x="-3.41" y="78.46" width="1206.82" height="543.07"/>
    </clipPath>
  </defs>
  <g class="st4">
    <path class="st0" d="M771.5,496.45c0-.58.1-1.05.19-1.53.72-2.97,3.31-4.74,6.04-4.74,4.36,0,6.66,3.4,6.66,7.47,0,4.74-2.63,7.57-6.76,7.57-3.07,0-5.41-2.16-5.99-4.5-.1-.48-.14-.91-.14-1.39v-2.87ZM765.32,502.82c0,2.54-.05,5.08-.19,6.61h5.27l.24-3.74h.1c1.87,3.16,4.98,4.31,8.29,4.31,5.65,0,11.64-4.12,11.64-12.6.05-7.19-4.6-11.88-10.78-11.88-3.93,0-6.76,1.63-8.29,3.98h-.1v-14.37h-6.18v27.69Z"/>
    <path class="st0" d="M792.43,486.1l9.34,21.37c.29.62.38,1.01.38,1.24,0,.29-.14.62-.38,1.01-.96,1.82-2.44,3.21-3.64,3.88-1.25.77-2.54,1.2-3.5,1.34l1.25,5.17c1.63-.14,4.12-.81,6.61-2.78,2.78-2.16,5.17-5.65,9.01-15.57l6.32-15.67h-6.71l-4.12,12.36c-.48,1.49-.96,3.35-1.39,4.65h-.14c-.38-1.24-.96-3.16-1.49-4.55l-4.69-12.46h-6.85Z"/>
    <path class="st0" d="M838.04,509.43v-12.41c0-4.84-.05-9.01-.29-13.32l.19-.05c1.77,3.74,4.17,7.67,6.52,11.4l9.44,14.37h6.56v-32.29h-5.75v11.98c0,4.65.05,8.58.53,12.89l-.14.05c-1.63-3.64-3.59-7.23-6.08-11.02l-9.34-13.89h-7.38v32.29h5.75Z"/>
    <path class="st0" d="M878.91,489.93c4.55,0,6.52,4.02,6.52,7.76,0,5.08-2.92,7.9-6.61,7.9s-6.61-3.11-6.61-7.81c0-4.02,2.06-7.86,6.71-7.86M879.1,485.53c-7.95,0-13.27,5.08-13.27,12.46s5.65,12.02,12.79,12.02,13.17-4.22,13.17-12.5c0-6.9-5.08-11.98-12.69-11.98Z"/>
    <rect class="st0" x="896.97" y="475.13" width="6.18" height="34.3"/>
    <path class="st0" d="M911,481.69v4.41h-3.5v4.6h3.5v10.59c0,2.97.57,5.22,1.87,6.66,1.15,1.2,3.07,2.06,5.37,2.06,2.01,0,3.69-.34,4.65-.67l-.14-4.65c-.72.19-1.29.29-2.54.29-2.59,0-3.21-1.68-3.21-4.55v-9.72h5.99v-4.6h-5.99v-6.04l-5.99,1.63Z"/>
    <path class="st0" d="M931.84,495.2c.34-2.25,2.01-5.56,6.08-5.56,4.65,0,5.51,3.93,5.46,5.56h-11.54ZM948.99,499.47c.14-.48.24-1.39.24-2.4,0-4.69-2.49-11.55-10.92-11.55s-12.31,6.56-12.31,12.55c0,7.14,4.84,11.93,12.93,11.93,3.78,0,6.71-.72,8.91-1.63l-.96-4.17c-2.01.72-4.12,1.15-7.19,1.15-4.07,0-7.62-1.96-7.81-5.89h17.1Z"/>
    <path class="st0" d="M993.98,491.51h-12.46v4.79h6.42v7.76c-.91.43-2.83.77-5.36.77-7.81,0-12.74-4.79-12.74-11.69s5.22-11.35,12.98-11.35c4.03,0,6.51.72,8.57,1.58l1.39-4.84c-1.63-.81-5.17-1.72-9.72-1.72-12.17,0-19.69,7.14-19.69,16.77,0,4.6,1.72,8.72,4.69,11.5,3.35,3.16,8,4.69,14.13,4.69,5.03,0,9.48-1.2,11.78-2.01v-16.24Z"/>
    <path class="st0" d="M1000.4,509.43h6.18v-12.03c0-.53.05-1.1.14-1.63.48-2.73,2.49-4.6,5.65-4.6.81,0,1.39.1,1.96.19v-5.7c-.53-.1-.91-.14-1.49-.14-2.73,0-5.7,1.72-6.95,5.32h-.19l-.19-4.74h-5.32c.14,2.11.19,4.36.19,7.81v15.52Z"/>
    <path class="st0" d="M1029.76,489.93c4.55,0,6.51,4.02,6.51,7.76,0,5.08-2.92,7.9-6.61,7.9s-6.61-3.11-6.61-7.81c0-4.02,2.06-7.86,6.71-7.86M1029.95,485.53c-7.95,0-13.27,5.08-13.27,12.46s5.65,12.02,12.79,12.02,13.17-4.22,13.17-12.5c0-6.9-5.08-11.98-12.69-11.98Z"/>
    <path class="st0" d="M1070.43,486.1h-6.18v13.75c0,.62-.1,1.25-.34,1.72-.72,1.72-2.49,3.45-5.13,3.45-3.45,0-4.89-2.54-4.89-6.61v-12.31h-6.18v13.41c0,8.14,4.6,10.49,8.86,10.49,4.74,0,7.19-2.73,8.19-4.46h.14l.29,3.88h5.41c-.14-1.87-.19-4.22-.19-7.04v-16.29Z"/>
    <path class="st0" d="M1083.51,496.54c0-.48.1-.96.19-1.44.72-2.97,3.31-4.84,6.13-4.84,4.26,0,6.56,3.45,6.56,7.42,0,4.74-2.64,7.67-6.76,7.67-3.07,0-5.41-2.16-5.99-4.6-.1-.48-.14-.96-.14-1.49v-2.73ZM1077.33,519.01h6.18v-12.31h.1c1.34,2.11,4.17,3.31,7.43,3.31,5.8,0,11.64-4.17,11.64-12.65,0-7.43-5.13-11.83-10.68-11.83-4.12,0-7.14,1.63-9.05,4.41h-.1l-.29-3.83h-5.41c.14,2.3.19,4.89.19,7.86v25.05Z"/>
    <path class="st1" d="M326.18,281.41l82.97-95.29h-22.58c-4.96,0-9.69,2.15-12.94,5.9l-62.59,71.98,15.14,17.41Z"/>
    <path class="st1" d="M280.41,299.07l-81.24,93.42,22.25.05c4.98.01,9.71-2.14,12.98-5.89l61.13-70.21-15.13-17.37Z"/>
    <path class="st1" d="M262.97,228.76l108.64,124.99-22.29.07c-4.98.02-9.72-2.13-13-5.89l-108.88-125.07h22.57c4.97,0,9.69,2.15,12.95,5.9"/>
    <path class="st3" d="M278.43,295.12l-81.24,93.42,22.26.05c4.97.01,9.71-2.14,12.98-5.89l61.13-70.21-15.12-17.37ZM326.05,275.18l82.97-95.29h-22.58c-4.97,0-9.69,2.15-12.95,5.9l-62.59,71.98,15.14,17.41Z"/>
    <path class="st3" d="M264.74,224.69l108.64,124.98-22.29.07c-4.98.02-9.72-2.13-13-5.89l-108.88-125.07h22.58c4.97,0,9.69,2.15,12.95,5.9"/>
    <path class="st1" d="M862.27,218.91c-7.23,0-13.43.94-18.59,2.81-5.17,1.87-9.39,4.49-12.69,7.84-3.29,3.36-5.68,7.33-7.17,11.91-1.48,4.58-2.22,9.59-2.22,15.01,0,4.52.61,9.04,1.84,13.56,1.22,4.52,3.42,8.59,6.58,12.2,3.16,3.61,7.52,6.52,13.07,8.71,5.55,2.2,12.72,3.3,21.5,3.3h47.56c4,0,7.33.45,9.98,1.35,2.64.9,4.74,2.1,6.29,3.58,1.55,1.49,2.65,3.23,3.29,5.23.64,2,.97,4.04.97,6.1,0,4.78-1.45,8.69-4.35,11.72-2.91,3.04-7.46,4.55-13.66,4.55h-83.46c-4.03,0-7.29,3.26-7.29,7.29v15.56h89.97c7.49,0,13.84-.97,19.08-2.9,5.23-1.94,9.52-4.62,12.88-8.04,3.35-3.42,5.81-7.46,7.36-12.11,1.55-4.65,2.33-9.75,2.33-15.3,0-4.65-.62-9.3-1.84-13.94-1.23-4.65-3.49-8.78-6.78-12.39-3.29-3.61-7.78-6.55-13.46-8.81-5.69-2.26-12.98-3.39-21.88-3.39h-47.76c-3.87,0-7.04-.42-9.49-1.26-2.45-.84-4.42-2-5.91-3.49-1.48-1.48-2.52-3.16-3.1-5.03-.58-1.87-.87-3.78-.87-5.72,0-4.52,1.36-8.23,4.07-11.13,2.71-2.91,7.03-4.36,12.97-4.36h76.88c4.03,0,7.29-3.26,7.29-7.29v-15.56h-83.39Z"/>
    <path class="st1" d="M401.13,389.34h5.81v21.7h.2c1.2-1.73,2.4-3.34,3.54-4.81l13.75-16.89h7.21l-16.29,19.1,17.56,25.9h-6.88l-14.82-22.1-4.28,4.94v17.15h-5.81v-44.99Z"/>
    <path class="st1" d="M494.31,382.79c0-1.81,1.4-3.34,3.27-3.34s3.21,1.47,3.21,3.34-1.27,3.4-3.21,3.4-3.27-1.54-3.27-3.4M481.89,382.79c0-1.81,1.47-3.34,3.34-3.34s3.21,1.47,3.21,3.34-1.34,3.4-3.27,3.4-3.27-1.54-3.27-3.4ZM480.49,389.34v26.63c0,10.08,4.47,14.35,10.48,14.35,6.68,0,10.95-4.4,10.95-14.35v-26.63h5.87v26.23c0,13.82-7.28,19.5-17.02,19.5-9.21,0-16.16-5.27-16.16-19.23v-26.5h5.88Z"/>
    <path class="st1" d="M582.34,432.86c-2.14,1.07-6.41,2.14-11.88,2.14-12.69,0-22.23-8.01-22.23-22.76s9.54-23.63,23.5-23.63c5.61,0,9.14,1.2,10.68,2l-1.4,4.74c-2.2-1.07-5.34-1.87-9.08-1.87-10.55,0-17.56,6.74-17.56,18.56,0,11.02,6.34,18.09,17.29,18.09,3.54,0,7.14-.73,9.48-1.87l1.2,4.6Z"/>
    <polygon class="st1" points="650.21 389.34 650.21 408.16 628.45 408.16 628.45 389.34 622.64 389.34 622.64 434.33 628.45 434.33 628.45 413.23 650.21 413.23 650.21 434.33 656.09 434.33 656.09 389.34 650.21 389.34"/>
    <polygon class="st1" points="699.25 389.34 699.25 434.33 724.56 434.33 724.56 429.46 705.06 429.46 705.06 413.23 722.55 413.23 722.55 408.43 705.06 408.43 705.06 394.21 723.55 394.21 723.55 389.34 699.25 389.34"/>
    <path class="st1" d="M765.13,434.33v-44.99h6.34l14.42,22.77c3.34,5.27,5.94,10.01,8.08,14.62l.13-.07c-.53-6-.67-11.48-.67-18.49v-18.82h5.47v44.99h-5.87l-14.29-22.83c-3.14-5.01-6.14-10.15-8.41-15.02l-.2.07c.34,5.68.47,11.08.47,18.56v19.23h-5.48Z"/>
    <path class="st1" d="M120.01,326.78v-31.09h84.23c4.02,0,7.29-3.26,7.29-7.29v-15.56h-91.52v-31.08h84.23c4.02,0,7.29-3.26,7.29-7.29v-15.56h-114.37v130.73h107.08c4.02,0,7.29-3.27,7.29-7.29v-15.56h-91.52Z"/>
    <path class="st1" d="M707.68,326.78v-31.09h84.25c4.03,0,7.29-3.26,7.29-7.29v-15.56h-91.54v-31.08h84.25c4.03,0,7.29-3.26,7.29-7.29v-15.56h-114.37v5.71h-.03v124.1h.03v.92h107.08c4.03,0,7.29-3.27,7.29-7.29v-15.56h-91.54Z"/>
    <path class="st1" d="M519.04,258.03c0-5.16-.81-10.14-2.42-14.91-1.62-4.78-4.13-8.94-7.55-12.49-3.42-3.55-7.78-6.39-13.07-8.52-5.3-2.13-11.62-3.19-18.98-3.19h-76.13v130.87s15.56,0,15.56,0c4.02,0,7.29-3.26,7.29-7.29v-43.4h53.28c7.62,0,14.1-1.23,19.46-3.68,5.36-2.45,9.71-5.62,13.07-9.49,3.36-3.87,5.78-8.26,7.26-13.17,1.48-4.91,2.23-9.81,2.23-14.72M495.99,259.19c0,2.32-.36,4.55-1.06,6.68-.71,2.13-1.78,4.03-3.19,5.71-1.43,1.68-3.3,3.04-5.62,4.06-2.33,1.04-5.1,1.55-8.33,1.55h-54.05v-35.44h54.25c6.2,0,10.75,1.71,13.65,5.13,2.9,3.42,4.36,7.53,4.36,12.3Z"/>
    <path class="st1" d="M660.39,257.65c0-5.16-.81-10.13-2.42-14.91-1.61-4.78-4.13-8.94-7.55-12.49-3.42-3.55-7.78-6.39-13.07-8.52-5.3-2.13-11.62-3.19-18.98-3.19h-76.13l-.08.25v130.98h15.56c4.03,0,7.29-3.26,7.29-7.29v-43.77h44.13l22.91,46.95c1.23,2.51,3.78,4.1,6.57,4.09l20.82-.05-25.88-53.06c1.49-.46,2.91-1,4.26-1.62,5.36-2.45,9.71-5.62,13.07-9.49,3.36-3.87,5.78-8.26,7.26-13.17,1.48-4.91,2.23-9.81,2.23-14.72M637.34,258.82c0,2.32-.36,4.55-1.06,6.68-.71,2.13-1.78,4.04-3.2,5.71-1.42,1.68-3.29,3.04-5.62,4.07-2.33,1.04-5.1,1.55-8.33,1.55h-54.13v-35.44h54.32c6.2,0,10.75,1.71,13.66,5.13,2.9,3.42,4.36,7.53,4.36,12.3Z"/>
    <path class="st1" d="M1009.58,218.91c-7.23,0-13.43.94-18.59,2.81-5.17,1.87-9.39,4.49-12.69,7.84-3.29,3.36-5.68,7.33-7.16,11.91-1.48,4.58-2.23,9.59-2.23,15.01,0,4.52.61,9.04,1.84,13.56,1.22,4.52,3.42,8.59,6.59,12.2,3.16,3.61,7.52,6.52,13.07,8.71,5.55,2.2,12.72,3.3,21.5,3.3h47.56c4,0,7.33.45,9.98,1.35,2.64.9,4.74,2.1,6.29,3.58,1.55,1.49,2.65,3.23,3.29,5.23.64,2,.97,4.04.97,6.1,0,4.78-1.45,8.69-4.36,11.72-2.91,3.04-7.46,4.55-13.65,4.55h-83.46c-4.03,0-7.29,3.26-7.29,7.29v15.56h89.97c7.48,0,13.84-.97,19.08-2.9,5.23-1.94,9.52-4.62,12.88-8.04,3.35-3.42,5.81-7.46,7.36-12.11,1.55-4.65,2.33-9.75,2.33-15.3,0-4.65-.62-9.3-1.84-13.94-1.23-4.65-3.49-8.78-6.78-12.39-3.29-3.61-7.78-6.55-13.46-8.81-5.69-2.26-12.98-3.39-21.88-3.39h-47.76c-3.87,0-7.04-.42-9.49-1.26-2.45-.84-4.42-2-5.91-3.49-1.48-1.48-2.52-3.16-3.1-5.03-.58-1.87-.87-3.78-.87-5.72,0-4.52,1.36-8.23,4.07-11.13,2.71-2.91,7.03-4.36,12.97-4.36h76.88c4.02,0,7.29-3.26,7.29-7.29v-15.56h-83.39Z"/>
  </g>
</svg>