<?xml version="1.0" encoding="UTF-8"?>
<svg id="Layer_1" xmlns="http://www.w3.org/2000/svg" version="1.1" viewBox="0 0 1200 700">
  <!-- Generator: Adobe Illustrator 29.8.7, SVG Export Plug-In . SVG Version: 2.1.1 Build 1)  -->
  <g id="Logo_Dekton">
    <g id="Grupo_326">
      <path id="Trazado_1" d="M175.9,277.35v8.32l-1.61,1.83h-82.43l-1.61-1.83v-8.32l1.61-1.83h82.46l1.58,1.83Z"/>
    </g>
    <g id="Grupo_327">
      <path id="Trazado_2" d="M218.65,311.61v8.32l-1.61,1.83h-125.18l-1.61-1.83v-8.32l1.61-1.83h125.21l1.58,1.83Z"/>
    </g>
    <g id="Grupo_328">
      <path id="Trazado_3" d="M175.9,414.33v8.32l-1.61,1.83h-82.43l-1.61-1.83v-8.32l1.61-1.83h82.46l1.58,1.83Z"/>
    </g>
    <g id="Grupo_329">
      <path id="Trazado_4" d="M218.65,380.09v8.32l-1.61,1.83h-125.18l-1.61-1.83v-8.32l1.61-1.83h125.21l1.58,1.83Z"/>
    </g>
    <g id="Grupo_330">
      <path id="Trazado_5" d="M235.7,345.85v8.32l-1.61,1.83H91.86l-1.61-1.83v-8.32l1.61-1.83h142.26l1.58,1.83Z"/>
    </g>
    <g id="Grupo_331">
      <path id="Trazado_6" d="M726.8,409.37l-2.14-2.43v-94.21h-35.27l-2.24-2.53.1-16.41,2.13-2.28h93.46l2.13,2.43v16.37l-2.13,2.43h-35.29v94.38l-2.11,2.25h-18.64Z"/>
    </g>
    <g id="Grupo_962">
      <g id="Grupo_332">
        <path id="Trazado_7" d="M335.82,388.49h21.59c23.23,0,38.83-15.17,38.83-37.73v-.3c0-22.4-15.96-38.05-38.83-38.05h-21.59v76.08ZM315.29,409.39l-2.13-2.44v-113l2.13-2.41h42.13c36.22,0,62.51,24.64,62.51,58.57v.35c0,34.14-26.28,58.91-62.51,58.91h-42.13Z"/>
      </g>
      <g id="Grupo_333">
        <path id="Trazado_8" d="M647.47,409.37l-39.79-50.69-17.5,16.88v31.37l-2.14,2.43h-18.43l-2.24-2.53.1-112.89,2.14-2.41h18.43l2.14,2.44v53.87l55.97-56.31h28.53v3l-51.06,49.11,51.14,63.48-.07,2.26h-27.23Z"/>
      </g>
      <g id="Grupo_334">
        <path id="Trazado_9" d="M857.94,310.62c-21.51,0-37.73,16.98-37.73,39.5v.34c0,22.59,16.35,39.63,38.03,39.63s37.72-16.9,37.72-39.33v-.3c0-22.71-16.35-39.84-38.02-39.84M857.94,411.35c-35.02,0-61.42-26.04-61.42-60.59v-.3c-.14-33.52,26.91-60.8,60.43-60.94.43,0,.86,0,1.29,0,35.01,0,61.42,26.05,61.42,60.59v.34c.14,33.5-26.9,60.76-60.4,60.9-.44,0-.88,0-1.32,0"/>
      </g>
      <g id="Grupo_335">
        <path id="Trazado_10" d="M1031.75,409.37l-61.77-79.95v77.52l-2.14,2.43h-18.09l-2.24-2.53.1-113.03,2.12-2.28h18.52l59.99,77.61v-75.21l2.14-2.43h18.11l2.14,2.43v113.01l-2.14,2.43h-16.75Z"/>
      </g>
      <g id="Grupo_336">
        <path id="Trazado_11" d="M486.66,360.67l-2.12-2.41v-15.79l2.12-2.41h30.3l2.14,2.41v15.79l-2.14,2.41h-30.3Z"/>
      </g>
      <g id="Grupo_337">
        <path id="Trazado_12" d="M449.56,409.37l-2.14-2.44v-112.99l2.14-2.41h84.72l2.13,2.44v15.69l-2.13,2.44h-64.21v76.71h64.81l2.14,2.43v15.7l-2.14,2.43h-85.32Z"/>
      </g>
      <g id="Grupo_356">
        <path id="Trazado_32" d="M1091.6,306.11h3.55c2.29,0,3.34-1.05,3.34-2.71s-1.04-2.71-3.34-2.71h-3.55v5.43ZM1100.99,314.26h-2.09l-3.34-6.27h-3.97v6.27h-1.87v-15.45h5.42c2.63-.24,4.95,1.69,5.19,4.32,0,.09.01.18.02.27-.04,1.85-1.19,3.5-2.92,4.18l3.55,6.68ZM1107.87,306.53c.17-7.09-5.44-12.97-12.53-13.14-.21,0-.42,0-.63,0-7.09-.17-12.97,5.44-13.14,12.52,0,.21,0,.41,0,.62-.17,7.09,5.43,12.98,12.52,13.15.21,0,.41,0,.62,0,7.09.17,12.98-5.44,13.16-12.53,0-.21,0-.41,0-.62M1109.75,306.53c.03,8.26-6.65,14.98-14.91,15.01-.04,0-.08,0-.12,0-8.26.03-14.99-6.64-15.02-14.9,0-.04,0-.07,0-.11-.03-8.26,6.64-14.99,14.9-15.02.04,0,.08,0,.11,0,8.26-.04,14.99,6.63,15.03,14.9,0,.04,0,.08,0,.13"/>
      </g>
    </g>
  </g>
</svg>