<?xml version="1.0" encoding="UTF-8"?>
<svg id="svg11931" xmlns="http://www.w3.org/2000/svg" version="1.1" xmlns:svg="http://www.w3.org/2000/svg" viewBox="0 0 1200 700">
  <!-- Generator: Adobe Illustrator 29.8.7, SVG Export Plug-In . SVG Version: 2.1.1 Build 1)  -->
  <defs>
    <style>
      .st0 {
        fill: #ffed00;
      }
    </style>
  </defs>
  <path id="path6099" d="M657.59,567.91h11.39v-39.43l35.88,39.43h16.86l-40.85-42.52,38.01-38.01h-15.45l-34.44,35.4v-35.4h-11.4v80.53h0Z"/>
  <path id="path6101" d="M796.6,487.38h-11.39v45.62c0,15.43-4.98,26.13-19.96,26.13s-19.71-10.69-19.71-26.13v-45.62h-11.4v47.28c0,22.56,11.4,34.68,31.12,34.68s31.35-12.11,31.35-34.68v-47.28h0ZM750.51,480.73h10.69v-11.64h-10.69v11.64ZM769.28,480.73h10.94v-11.64h-10.94v11.64Z"/>
  <path id="path6103" d="M873.76,489.52c-5.7-2.62-11.88-3.56-18.05-3.56-24.47,0-42.52,16.39-42.52,41.32s16.86,42.05,42.52,42.05c4.75,0,12.11-.49,18.29-2.85l-.78-11.16c-4.04,2.36-11.88,3.79-17.57,3.79-16.64,0-30.41-12.59-30.41-31.59s12.35-31.35,31.12-31.35c5.7,0,11.4,1.42,16.62,4.51l.68-11.17h.1Z"/>
  <path id="path6105" d="M888.49,567.91h11.39v-36.81h38.73v36.81h11.41v-80.53h-11.41v33.73h-38.73v-33.73h-11.39v80.53Z"/>
  <path id="path6107" d="M971.83,567.91h45.13v-10.22h-33.74v-26.59h30.69v-9.99h-30.69v-23.51h33.74v-10.22h-45.13v80.53Z"/>
  <path id="path6109" d="M1035.33,567.91h11.43v-66.27h0l36.49,66.27h14.71v-80.53h-11.31v64.85h0l-35.63-64.85h-15.7v80.53h.01Z"/>
  <path id="path6111" class="st0" d="M101.41,461.92h997.16v-45.04H101.41v45.04Z"/>
  <path id="path6113" d="M587.04,131.84h92.92v261.09h-91.7l-1.23-261.09h.01Z"/>
  <path id="path6117" d="M812.8,130.67v81.34h58.77v56.07h-58.72v40.11c-.19,12.81,13.46,19.67,25.9,19.47,19,.19,37.58-18.34,37.58-18.34v71.03c0,.19-42.24,21.81-65.85,22.95-51.55.88-89.13-31.94-89.37-66.48l-1.22-68.74h-31.75v-37.72l101.11-99.68h23.55,0Z"/>
  <path id="path6119" d="M458.9,324.23c-18.34,1.09-32.12-14.5-32.93-32.08-.39-18.29,12.49-35.19,30.59-35.54,19.25-.19,33.07,16.78,32.93,35.54-.88,16.78-12.97,31.94-30.59,32.08M456.56,181.07c-64.61.49-123.91,39.95-121.15,111.08,2.47,66.48,61.68,110.81,128.19,107.67,62.53-2.38,117.59-43.51,116.4-108.8-1.09-77.1-57.96-110.18-123.44-109.94"/>
  <path id="path6121" d="M1070.85,145.63c4.14,0,7.41.1,7.41,4.09,0,4.41-5.71,3.8-9.85,3.8h-4.98v-7.89h7.42ZM1074.6,157.17c3.78,0,7.54-2.18,7.54-7.45,0-6.46-4.98-8.17-10.21-8.17h-12.16v28.83h3.65v-13.2h6.2l7.41,13.2h4.87l-7.3-13.2h0ZM1069.62,134.28c12.28.19,22.38,9.65,22.25,21.67,0,12.16-9.97,21.51-22.25,21.66-11.79-.1-21.77-9.5-22.25-21.66,0-12.02,10.46-21.39,22.25-21.67M1069.62,181.22c14.96.39,26.63-10.92,27.12-25.27,0-14.16-12.16-25.52-27.12-25.28-14.47-.29-26.03,11.12-25.9,25.28,0,14.35,11.43,25.65,25.9,25.27"/>
  <path id="path6123" d="M965.65,272.68h60.07c0-.39-3.65-33.41-29.47-33.22-29.26.78-30.16,32.83-30.59,33.22M995.07,179.98c34.9.97,60.2,8.42,83.55,34.31,23.23,27.6,19.09,90.22,18.73,90.45h-129.33c.1-.19,7.12,32.79,54.04,32.07,31.74-1.32,76.37-9.55,76.51-9.17v45.8s-49.75,28.41-91.72,28.6c-75.99-.19-126.4-46.22-125.82-111.03-.58-61,39.61-112.12,114.03-111.03"/>
  <path id="path6125" d="M101.46,186.77v206.16h88.19v-105.38c0-9.83,13.88-25.51,28.22-26.27,13.11-.39,20.05,11.64,19.96,24.04v107.61h88.23v-136.26c-.49-23.09-14.98-57.83-42.35-68.7-20.41-8.47-35.82-7.5-57.62-2.29-15.06,3.23-23.56,6.85-36.44,16.02v-14.93h-88.19Z"/>
</svg>