<?xml version="1.0" encoding="UTF-8"?>
<svg id="Layer_1" xmlns="http://www.w3.org/2000/svg" version="1.1" viewBox="0 0 1200 700">
  <!-- Generator: Adobe Illustrator 29.8.7, SVG Export Plug-In . SVG Version: 2.1.1 Build 1)  -->
  <defs>
    <style>
      .st0 {
        fill: #201d1d;
      }
    </style>
  </defs>
  <path class="st0" d="M723.63,500.25h68.52v68.52h-68.52v-68.52ZM723.63,425.23h68.52v68.52h-68.52v-68.52ZM723.63,350.16h68.52v68.52h-68.52v-68.52ZM798.66,500.26h68.52v68.52h-68.52v-68.52ZM798.66,425.23h68.52v68.52h-68.52v-68.52ZM798.66,350.16h68.52v68.52h-68.52v-68.52ZM873.73,500.26h68.52v68.52h-68.52v-68.52ZM873.73,425.24h68.52v68.52h-68.52v-68.52ZM873.73,350.16h68.52v68.53h-68.52v-68.53ZM948.75,500.26h68.52v68.52h-68.52v-68.52ZM948.75,425.24h68.52v68.52h-68.52v-68.52ZM948.75,350.17h68.52v68.52h-68.52v-68.52ZM717.08,575.34h306.75v-231.68h-306.75v231.68ZM526.6,113.63c20.75,0,27.87,14.21,27.87,54.64s-6.55,54.08-27.87,54.08-27.87-13.11-27.87-54.08,7.1-54.64,27.87-54.64M514.58,255.14c16.39,0,30.05-9.84,37.16-27.87h3.28v11.48c0,34.43-9.28,45.35-40.43,45.35-12.75.29-25.41-2.13-37.16-7.1v32.79c13.7,4.72,28.14,6.95,42.63,6.55,27.87,0,44.8-7.64,56.82-25.68,8.2-12.57,10.38-23.5,10.38-53.55V82.48h-32.24v21.86h-3.28c-5.47-18.03-17.49-27.32-35.52-27.32-16.85-.46-32.42,8.92-39.89,24.04-6.56,13.1-9.84,33.87-9.84,61.19,0,28.96,3.83,55.18,9.84,67.75,6.63,15.23,21.64,25.1,38.25,25.14ZM550.64,382.46c-19.68,0-34.97,11.48-40.43,31.7h-3.28v-70.49h-34.43v231.68h34.42v-108.19c0-16.95,1.64-29.51,6.56-36.61,5.03-7.39,13.47-11.72,22.41-11.48,15.84,0,21.85,9.29,21.85,34.43v121.85h35.51v-134.41c0-19.13-3.82-33.88-11.47-43.72-7.52-9.49-19.04-14.95-31.14-14.75M623.1,342.71h36.64v232.1h-36.64v-232.1ZM1012.36,91.77c-7.52-9.5-19.04-14.96-31.14-14.75-19.68-.08-37.04,12.82-42.63,31.69h-3.28v-26.23h-32.23v187.42h34.42v-108.19c0-16.94,1.64-29.5,6.56-36.6,5.02-7.39,13.46-11.72,22.4-11.48,15.85,0,21.86,9.28,21.86,34.42v121.85h35.51v-134.41c0-19.12-3.82-33.87-11.47-43.71M408.03,221.27c-4.37,13.66-12.02,19.67-24.59,19.67s-19.67-6.01-24.04-19.67c-3.28-12.02-5.46-22.95-5.46-47-.35-13.43,1.12-26.85,4.37-39.89,4.38-13.66,12.02-19.67,25.14-19.67s21.31,6.55,25.68,19.67c2.72,8.75,4.38,20.22,4.38,39.89-.01,24.04-2.19,34.97-5.48,47h.01ZM383.44,77.02c-45.35,0-62.84,25.14-62.84,90.16,0,79.23,16.94,108.19,62.84,108.19s62.84-30.05,62.84-106.55c0-65.57-18.03-91.8-62.84-91.8M672.48,222.36c-21.3,0-27.87-13.11-27.87-54.08s7.11-54.64,27.87-54.64,27.88,14.21,27.88,54.64-6.55,54.08-27.87,54.08h-.01ZM733.14,237.11V82.48h-32.24v21.86h-3.28c-5.46-18.03-17.48-27.32-35.52-27.32-16.84-.46-32.42,8.92-39.89,24.04-6.55,13.1-9.84,33.87-9.84,61.19,0,28.96,3.83,55.18,9.84,67.75,6.63,15.23,21.64,25.1,38.25,25.15,16.39,0,30.05-9.84,37.16-27.88h3.28v11.48c0,34.43-9.28,45.36-40.43,45.36-12.75.28-25.41-2.14-37.15-7.11v32.79c13.69,4.74,28.13,6.95,42.62,6.56,27.87,0,44.8-7.65,56.82-25.68,8.2-12.58,10.38-23.52,10.38-53.56ZM259.96,228.38c-3.96,8.79-12.77,14.37-22.41,14.21-10.06.21-19.37-5.29-24.04-14.21-4.37-8.2-6.01-26.77-6.01-53,0-34.42,2.18-43.71,8.19-51.91,5.48-6.34,13.48-9.93,21.86-9.84,8.25-.21,16.13,3.42,21.31,9.84,5.46,7.65,7.64,21.86,7.64,50.82,0,26.76-2.18,43.71-6.55,54.09M251.76,77.02c-20.75,0-36.61,11.48-42.07,31.69h-3.28v-26.23h-32.24v233.32h35.52v-65.57h3.28c6.02,16.39,17.49,25.14,34.97,25.14,19.67,0,34.96-11.48,43.16-32.24,6.02-16.39,8.75-33.87,8.75-74.3,0-42.62-3.29-61.2-13.11-74.32-8.04-11.26-21.14-17.81-34.97-17.48M819.46,112.54c19.12,0,27.87,12.57,27.87,39.89v9.84h-56.82c.56-37.71,8.21-49.72,28.97-49.72h-.01ZM830.39,275.36c14.75,0,31.14-2.72,39.89-6.56v-32.78c-11.02,4.81-22.94,7.22-34.97,7.1-21.86,0-34.97-7.1-40.43-21.86-3.34-9.85-4.82-20.22-4.37-30.61h85.23v-39.33c.4-15.6-2.01-31.14-7.1-45.89-8.2-18.58-25.68-28.41-49.18-28.41-42.08,0-61.2,30.05-61.2,95.62,0,35.52,5.46,62.84,15.84,77.59,10.95,16.39,30.07,25.14,56.29,25.14ZM259.96,533.82c-3.96,8.79-12.77,14.37-22.41,14.21-10.06.21-19.37-5.29-24.04-14.21-4.37-8.2-6.01-26.77-6.01-53,0-34.43,2.18-43.71,8.2-51.91,5.48-6.33,13.47-9.93,21.85-9.84,8.25-.21,16.13,3.42,21.31,9.84,5.46,7.65,7.65,21.86,7.65,50.82-.01,26.77-2.19,43.71-6.56,54.09M251.76,382.46c-20.75,0-36.61,11.48-42.07,31.69h-3.28v-26.23h-32.24v233.32h35.52v-65.57h3.28c6.02,16.39,17.49,25.14,34.97,25.14,19.67,0,34.96-11.48,43.16-32.23,6.02-16.4,8.75-33.88,8.75-74.32,0-42.62-3.29-61.2-13.11-74.32-8.04-11.26-21.14-17.81-34.97-17.48ZM408.03,526.71c-4.37,13.66-12.02,19.68-24.59,19.68s-19.67-6.02-24.04-19.68c-3.28-12.02-5.46-22.95-5.46-46.98-.35-13.44,1.12-26.86,4.37-39.89,4.38-13.66,12.02-19.68,25.14-19.68s21.31,6.56,25.68,19.68c2.72,8.74,4.38,20.21,4.38,39.89-.01,24.03-2.19,34.96-5.48,46.98h.01ZM383.44,382.46c-45.35,0-62.84,25.14-62.84,90.16,0,79.23,16.94,108.19,62.84,108.19s62.84-30.05,62.84-106.55c0-65.57-18.03-91.8-62.84-91.8"/>
</svg>