<?xml version="1.0" encoding="UTF-8"?>
<svg id="Layer_1" xmlns="http://www.w3.org/2000/svg" version="1.1" viewBox="0 0 1200 700">
  <!-- Generator: Adobe Illustrator 29.8.7, SVG Export Plug-In . SVG Version: 2.1.1 Build 1)  -->
  <defs>
    <style>
      .st0 {
        fill: #f94338;
      }
    </style>
  </defs>
  <rect x="376.37" y="324.11" width="27.35" height="96.46"/>
  <path d="M715.81,303.3v-23.14h-27.35v23.14h-10.23v22.71h10.23v94.57h27.35v-94.57h15.45c9.34-16.12,20.49-22.71,20.49-22.71h-35.93Z"/>
  <polygon points="449.87 420.57 422.52 420.57 422.52 269.17 449.87 261.05 449.87 420.57"/>
  <circle cx="389.61" cy="294.01" r="15.14"/>
  <path d="M792.88,300.31c-33.76,0-61.13,27.57-61.13,61.57s27.37,61.57,61.13,61.57,61.13-27.57,61.13-61.57-27.37-61.57-61.13-61.57ZM792.88,399.45c-18.86,0-34.16-16.92-34.16-37.79s15.29-37.79,34.16-37.79,34.16,16.92,34.16,37.79-15.29,37.79-34.16,37.79Z"/>
  <path d="M951.58,309.83c-16.24-12.45-46.64-14.65-63.74,6.1v-12.45h-25.22v117.09h27.35v-76.3l.55-.5s4.64-20.02,24.42-19.9c19.78.12,24.3,12.33,24.91,21.37v75.34h27.35v-75.34s.61-22.95-15.63-35.41Z"/>
  <path d="M1090.81,340.4c-8.27-23.37-29.72-40.02-54.88-40.02-32.32,0-58.52,27.47-58.52,61.35s26.2,61.35,58.52,61.35c20.92,0,39.28-11.51,49.62-28.82l-23.58-7.02s-10.68,14.16-27.9,12.82c-17.22-1.34-28.69-16.79-30.1-30.65h88.1c2.75-16.48-1.25-29.01-1.25-29.01ZM1005.25,350c0-14.87,13.61-26.92,30.4-26.92s30.4,12.05,30.4,26.92h-60.81Z"/>
  <path d="M573.09,340.4c-8.27-23.37-29.72-40.02-54.88-40.02-32.32,0-58.52,27.47-58.52,61.35s26.2,61.35,58.52,61.35c20.92,0,39.28-11.51,49.62-28.82l-23.58-7.02s-10.68,14.16-27.9,12.82c-17.22-1.34-28.69-16.79-30.1-30.65h88.1c2.75-16.48-1.25-29.01-1.25-29.01ZM487.53,350c0-14.87,13.61-26.92,30.4-26.92s30.4,12.05,30.4,26.92h-60.81Z"/>
  <path d="M1110.67,312.8c1.09-.22,2.64-.35,4.13-.35,2.3,0,3.78.42,4.82,1.36.84.74,1.31,1.88,1.31,3.16,0,2.2-1.38,3.66-3.14,4.25v.07c1.28.44,2.05,1.63,2.45,3.36.54,2.32.94,3.93,1.28,4.57h-2.22c-.27-.47-.64-1.9-1.11-3.98-.49-2.3-1.38-3.16-3.34-3.24h-2.03v7.21h-2.15v-16.43ZM1112.82,320.38h2.2c2.3,0,3.76-1.26,3.76-3.16,0-2.15-1.56-3.09-3.83-3.11-1.04,0-1.78.1-2.13.2v6.08Z"/>
  <path d="M1115.42,336.57c-8.63,0-15.65-7.02-15.65-15.65s7.02-15.65,15.65-15.65,15.65,7.02,15.65,15.65-7.02,15.65-15.65,15.65ZM1115.42,307.3c-7.51,0-13.62,6.11-13.62,13.62s6.11,13.62,13.62,13.62,13.62-6.11,13.62-13.62-6.11-13.62-13.62-13.62Z"/>
  <path d="M614.28,345.9"/>
  <path d="M336.3,338.46l23.99-7.45s-4.27-18.25-22.95-25.82c-18.68-7.57-40.17-1.77-45.48.92-5.31,2.69-13.06,5.71-19.66,19.17-6.59,13.46-1.01,27.11,1.37,30.77,2.38,3.66,8.33,11.36,20.6,14.01s24.63,5.68,30.59,6.78,12.55,5.22,11.81,12.55c-.73,7.33-8.61,14.1-20.88,13.46-12.27-.64-18.96-3.75-24.54-15.29l-24.63,7.33s7.69,20.42,29.03,26.65c21.34,6.23,42.77,2.38,56.32-9.71,13.55-12.09,11.81-30.59,8.42-38.74-3.39-8.15-15.02-16.58-23.26-18.13-8.24-1.56-30.22-5.95-34.89-8.42-4.67-2.47-7.05-7.42-6.04-12.91,1.01-5.49,10.62-10.81,19.14-10.26,8.52.55,16.12,4.12,21.06,15.11Z"/>
  <path d="M649.71,338.46l23.99-7.45s-4.27-18.25-22.95-25.82c-18.68-7.57-40.17-1.77-45.48.92-5.31,2.69-13.06,5.71-19.66,19.17-6.59,13.46-1.01,27.11,1.37,30.77,2.38,3.66,8.33,11.36,20.6,14.01,12.27,2.66,24.63,5.68,30.59,6.78,5.95,1.1,12.55,5.22,11.81,12.55-.73,7.33-8.61,14.1-20.88,13.46-12.27-.64-18.96-3.75-24.54-15.29l-24.63,7.33s7.69,20.42,29.03,26.65c21.34,6.23,42.77,2.38,56.32-9.71,13.55-12.09,11.81-30.59,8.42-38.74s-15.02-16.58-23.26-18.13c-8.24-1.56-30.22-5.95-34.89-8.42-4.67-2.47-7.05-7.42-6.04-12.91,1.01-5.49,10.62-10.81,19.14-10.26,8.52.55,16.12,4.12,21.06,15.11Z"/>
  <path class="st0" d="M200.71,438.42c59.87-40.13-2.63-86.85,1.1-121.72,2.41-22.55,11.62-33.34,11.62-33.34H70v156.59h128.52l2.19-1.54Z"/>
</svg>